<?xml version="1.0" encoding="UTF-8"?>
<svg width="14px" height="14px" viewBox="0 0 14 14" version="1.1" xmlns="http://www.w3.org/2000/svg" xmlns:xlink="http://www.w3.org/1999/xlink">
    <title>+</title>
    <defs>
        <path d="M11.5384615,11.1538462 L17.8846154,11.1538462 C18.1923077,11.1538462 18.4615385,10.8846154 18.4615385,10.5769231 L18.4615385,9.42307692 C18.4615385,9.11538462 18.1923077,8.84615385 17.8846154,8.84615385 L11.5384615,8.84615385 C11.3076923,8.84615385 11.1538462,8.69230769 11.1538462,8.46153846 L11.1538462,2.11538462 C11.1538462,1.80769231 10.8846154,1.53846154 10.5769231,1.53846154 L9.42307692,1.53846154 C9.11538462,1.53846154 8.84615385,1.80769231 8.84615385,2.11538462 L8.84615385,8.46153846 C8.84615385,8.69230769 8.69230769,8.84615385 8.46153846,8.84615385 L2.11538462,8.84615385 C1.80769231,8.84615385 1.53846154,9.11538462 1.53846154,9.42307692 L1.53846154,10.5769231 C1.53846154,10.8846154 1.80769231,11.1538462 2.11538462,11.1538462 L8.46153846,11.1538462 C8.69230769,11.1538462 8.84615385,11.3076923 8.84615385,11.5384615 L8.84615385,17.8846154 C8.84615385,18.1923077 9.11538462,18.4615385 9.42307692,18.4615385 L10.5769231,18.4615385 C10.8846154,18.4615385 11.1538462,18.1923077 11.1538462,17.8846154 L11.1538462,11.5384615 C11.1538462,11.3076923 11.3076923,11.1538462 11.5384615,11.1538462 Z" id="path-1"></path>
    </defs>
    <g id="Page-1" stroke="none" stroke-width="1" fill="none" fill-rule="evenodd">
        <g id="Wizzard_manage-hubs_add-pvt" transform="translate(-1456.000000, -116.000000)">
            <g id="Group-12" transform="translate(93.000000, 108.000000)">
                <g id="Group" transform="translate(1360.000000, 5.000000)">
                    <g id="+" transform="translate(10.000000, 10.000000) rotate(-315.000000) translate(-10.000000, -10.000000) ">
                        <rect id="Rectangle" x="0" y="0" width="20" height="20"></rect>
                        <g id="Icon-Glyph">
                            <mask id="mask-2" fill="white">
                                <use xlink:href="#path-1"></use>
                            </mask>
                            <use id="🎨-Color" fill="#FFFFFF" xlink:href="#path-1"></use>
                        </g>
                    </g>
                </g>
            </g>
        </g>
    </g>
</svg>