<?xml version="1.0" encoding="UTF-8"?>
<svg width="14px" height="14px" viewBox="0 0 14 14" version="1.1" xmlns="http://www.w3.org/2000/svg" xmlns:xlink="http://www.w3.org/1999/xlink">
    <title>search-2</title>
    <g id="Page-1" stroke="none" stroke-width="1" fill="none" fill-rule="evenodd">
        <g id="Wizzard_manage-hubs_add-pvt" transform="translate(-810.000000, -414.000000)" fill="#A3A29F" fill-rule="nonzero">
            <g id="Group-11" transform="translate(284.000000, 85.000000)">
                <g id="Group-10" transform="translate(70.000000, 287.000000)">
                    <g id="Group-9-Copy" transform="translate(436.000000, 0.000000)">
                        <g id="Group-7" transform="translate(0.000000, 30.000000)">
                            <g id="search" transform="translate(20.000000, 12.000000)">
                                <path d="M9.75343713,8.30757899 C11.4675974,5.93450237 10.8942996,2.64848762 8.47375453,0.968344523 C6.05320942,-0.71179857 2.70146498,-0.15014507 0.987714175,2.2233331 C-0.726036633,4.59640982 -0.153148335,7.88202303 2.26780625,9.56216612 C3.99547995,10.7613507 6.27966212,10.8536884 8.10192998,9.79863079 L12.06137,13.6571386 C12.4888865,14.0983518 13.2001852,14.1160164 13.6502239,13.6968839 C14.1002626,13.2781529 14.1182806,12.5808032 13.6911738,12.1395901 C13.6776603,12.1255387 13.6645563,12.1126917 13.6502239,12.0994432 L9.75343713,8.30757899 Z M5.36729966,8.6672943 C3.45453258,8.66769577 1.90376209,7.14854127 1.90253348,5.27328473 C1.90212409,3.39802819 3.45166606,1.87766927 5.36484262,1.87686606 C7.27515266,1.8760634 8.82510421,3.39280914 8.82879486,5.26565682 C8.83206566,7.1413148 7.28334274,8.66408248 5.3697566,8.6672943 C5.36893766,8.6672943 5.36852808,8.6672943 5.36729966,8.6672943 Z" id="Shape"></path>
                            </g>
                        </g>
                    </g>
                </g>
            </g>
        </g>
    </g>
</svg>